<?xml version="1.0" standalone="no"?>
<!DOCTYPE svg PUBLIC "-//W3C//DTD SVG 20010904//EN"
 "http://www.w3.org/TR/2001/REC-SVG-20010904/DTD/svg10.dtd">
<svg version="1.0" xmlns="http://www.w3.org/2000/svg"
 width="276.000000pt" height="276.000000pt" viewBox="0 0 276.000000 276.000000"
 preserveAspectRatio="xMidYMid meet">
<metadata>
Created by potrace 1.14, written by Peter Selinger 2001-2017
</metadata>
<g transform="translate(0.000000,276.000000) scale(0.100000,-0.100000)"
fill="#000000" stroke="none">
<path d="M1250 2350 c-116 -15 -362 -103 -384 -139 -4 -6 -12 -9 -17 -6 -5 4
-12 -1 -15 -9 -3 -9 -10 -13 -15 -10 -5 3 -12 -2 -15 -10 -3 -9 -12 -16 -19
-16 -13 0 -138 -119 -180 -171 -48 -59 -75 -99 -68 -99 4 0 3 -4 -3 -8 -12 -8
-78 -130 -79 -147 -1 -5 -6 -19 -12 -30 -17 -32 -45 -155 -48 -212 -2 -28 -5
-55 -7 -60 -8 -13 6 -233 17 -278 4 -16 8 -38 9 -47 0 -10 4 -18 8 -18 4 0 7
-3 6 -7 -4 -17 30 -109 65 -178 12 -22 26 -50 32 -62 5 -13 13 -23 18 -23 4 0
7 -6 7 -13 0 -30 226 -257 257 -257 6 0 13 -4 15 -9 4 -12 56 -42 148 -87 94
-46 187 -74 257 -77 18 -1 33 -5 33 -8 0 -3 18 -5 41 -5 22 1 43 -2 45 -6 3
-5 10 -6 15 -2 6 3 40 7 77 9 86 5 143 14 182 27 8 3 35 11 60 18 88 23 252
112 311 169 32 30 59 51 59 44 0 -4 11 8 25 27 14 19 25 30 25 26 0 -5 10 4
23 20 12 16 34 42 49 58 15 16 25 32 22 37 -3 5 2 9 11 9 9 0 14 4 11 9 -3 5
1 14 9 21 8 7 15 19 15 26 0 8 5 14 10 14 6 0 9 3 8 8 -1 4 13 38 31 76 19 38
34 80 35 93 0 12 4 23 9 23 4 0 7 11 7 23 0 13 3 27 7 31 4 3 8 16 10 29 2 12
6 40 9 62 12 79 9 303 -5 330 -3 5 -6 25 -8 44 -2 20 -7 38 -11 41 -6 5 -11
18 -16 45 -1 6 -5 16 -9 23 -5 6 -6 12 -2 12 3 0 0 10 -7 23 -7 12 -13 24 -14
27 -9 33 -28 70 -37 70 -6 0 -7 3 -4 7 4 3 1 13 -5 21 -7 8 -17 22 -23 32 -53
89 -169 216 -245 267 -107 73 -158 103 -173 103 -9 0 -18 4 -21 9 -3 5 -29 16
-58 25 -29 9 -60 20 -68 23 -8 4 -22 8 -30 9 -15 3 -44 9 -90 20 -39 9 -229
11 -290 4z"/>
</g>
</svg>
